# xmcd
#
# Track frame offsets: 
#        150
#        18679
#        35830
#        53351
#        76681
#        91129
#        107878
#        123505
#        142942
#        158835
#        179718
#        197376
#
# Disc length: 2787 seconds
#
# Revision: 1
# Processed by: cddbd v1.5.2PL0 Copyright (c) Steve Scherf et al.
# Submitted via: ExactAudioCopy v0.99pb4
#
DISCID=950ae10c
DTITLE=The Broken Family Band - Please And Thank You
DYEAR=2009
DGENRE=Alt Country
TTITLE0=Please Yourself
TTITLE1=Salivating
TTITLE2=St Albans
TTITLE3=You Did A Bad Thing
TTITLE4=Cinema Vs House
TTITLE5=Borrowed Time
TTITLE6=Miami
TTITLE7=Dont Bury Us
TTITLE8=Stay Friendly
TTITLE9=Son Of The Man
TTITLE10=The Girls In This Town
TTITLE11=Old Wounds
EXTD=
EXTT0=
EXTT1=
EXTT2=
EXTT3=
EXTT4=
EXTT5=
EXTT6=
EXTT7=
EXTT8=
EXTT9=
EXTT10=
EXTT11=
PLAYORDER=
